<svg id="Layer_1" data-name="Layer 1" xmlns="http://www.w3.org/2000/svg" xmlns:xlink="http://www.w3.org/1999/xlink" viewBox="0 0 626.73 303"><defs><style>.cls-1{fill:url(#linear-gradient);}.cls-2{fill:#e52528;}.cls-3{fill:url(#linear-gradient-2);}</style><linearGradient id="linear-gradient" x1="276.42" y1="122.78" x2="276.42" y2="144.9" gradientUnits="userSpaceOnUse"><stop offset="0" stop-color="#8dc044"/><stop offset="1" stop-color="#009245"/></linearGradient><linearGradient id="linear-gradient-2" x1="59.7" y1="38.52" x2="59.7" y2="292.99" gradientUnits="userSpaceOnUse"><stop offset="0" stop-color="#8dc044"/><stop offset="0" stop-color="#8dc044"/><stop offset="0.16" stop-color="#62b244"/><stop offset="0.33" stop-color="#3fa645"/><stop offset="0.49" stop-color="#239d45"/><stop offset="0.66" stop-color="#109745"/><stop offset="0.83" stop-color="#049345"/><stop offset="1" stop-color="#009245"/></linearGradient></defs><title>Artboard 7</title><path class="cls-1" d="M277,122.12c9.61,0,14.2,4.81,14,14.2v8.52H261.89V122.12Z"/><path class="cls-2" d="M277,155.11c9.39,0,14,4.59,14,14v101.6H261.89V155.11Z"/><path class="cls-2" d="M336.39,136.32v64l35.83-41.08h35l-40,42.82,40.42,68.61h-35l-20.54-38q-5.57-9.83-11.14-9.83a5.3,5.3,0,0,0-4.59,5.68v42.17H307.33V122.12h15.08A14.27,14.27,0,0,1,336.39,136.32Z"/><path class="cls-2" d="M457,270.69c-35-1.09-52.44-21.41-52.44-60.74s17.7-59,52.88-59.21c36.71,0,54,22.5,51.78,67.73H434.49c1.09,17.7,8.74,26.66,22.94,26.66,6.77,0,13.11-2.84,18.79-8.3a12.73,12.73,0,0,1,9.83-4.15h21.41C501.13,257.15,485.4,270.69,457,270.69Zm-22.07-73h43.48c-1.75-15.29-9-23.16-21.41-23.16S437.12,182.42,434.93,197.71Z"/><path class="cls-2" d="M574.32,270.69c-35-1.09-52.44-21.41-52.44-60.74s17.7-59,52.88-59.21c36.71,0,54,22.5,51.78,67.73H551.82c1.09,17.7,8.74,26.66,22.94,26.66,6.77,0,13.11-2.84,18.79-8.3a12.73,12.73,0,0,1,9.83-4.15h21.41C618.46,257.15,602.73,270.69,574.32,270.69Zm-22.07-73h43.48c-1.75-15.29-9-23.16-21.41-23.16S554.44,182.42,552.25,197.71Z"/><path class="cls-2" d="M177.24,111.14v36.55H94.61c-1.76,2.69-3.53,5.36-5.3,8l-20,29.65c-1.42,2.17-2.84,4.34-4.27,6.51l112.22.09v88.88a54,54,0,0,0,54-54V57.13A54,54,0,0,0,177.24,111.14Z"/><path class="cls-2" d="M124.08,14.42c.67,8.09-.69,15.55-5.92,21.87-6.23,7.53-15.29,6.1-18.39-3.22s-2.31-18.38,3.28-26.64c2.65-3.91,6-7.29,11.43-6.24s7.32,5.23,8.77,9.78A34.68,34.68,0,0,1,124.08,14.42Z"/><path class="cls-2" d="M87.12,13.42c.42,5-.43,9.65-3.68,13.58C79.58,31.67,74,30.78,72,25a18.14,18.14,0,0,1,2-16.54c1.64-2.43,3.72-4.53,7.1-3.87s4.54,3.25,5.44,6.07A21.53,21.53,0,0,1,87.12,13.42Z"/><path class="cls-2" d="M62.12,16.59c.38,4.56-.39,8.77-3.34,12.33-3.51,4.25-8.62,3.44-10.37-1.82a16.48,16.48,0,0,1,1.85-15C51.76,9.88,53.64,8,56.71,8.57s4.13,3,4.94,5.52A19.56,19.56,0,0,1,62.12,16.59Z"/><path class="cls-2" d="M39.46,23.13c.32,3.87-.33,7.43-2.83,10.45-3,3.6-7.31,2.91-8.79-1.54a14,14,0,0,1,1.57-12.73c1.27-1.87,2.87-3.49,5.46-3s3.5,2.5,4.19,4.67A16.57,16.57,0,0,1,39.46,23.13Z"/><path class="cls-2" d="M20.2,38.67a11.33,11.33,0,0,1-2.32,8.56c-2.44,2.95-6,2.39-7.2-1.26A11.44,11.44,0,0,1,12,35.55c1-1.53,2.35-2.86,4.48-2.44s2.87,2,3.43,3.83A13.58,13.58,0,0,1,20.2,38.67Z"/><path class="cls-3" d="M118.95,87.76a87.31,87.31,0,0,1-1.58,9.57q-1,4.68-2.44,9.2a149.35,149.35,0,0,1-6.72,17.53c-1.3,2.84-2.64,5.66-4.27,8.52s-3.13,5.36-4.75,7.95q-2.26,3.62-4.58,7.17c-1.76,2.69-3.53,5.36-5.3,8l-20,29.65c-1.42,2.17-2.84,4.34-4.27,6.51-1.81,2.78-3.59,5.59-5.28,8.43l-4.61,7.55c-1.49,2.54-3,5.09-4.41,7.66-2.86,5.13-5.62,10.3-8,15.55-1.19,2.62-2.34,5.23-3.24,7.82-.44,1.29-.83,2.57-1.12,3.8-.15.63-.27,1.23-.38,1.9l-.34,2.16A65.59,65.59,0,0,0,37,263.49,40.4,40.4,0,0,0,41.67,279l1,1.72.53.86.62.81,1.2,1.64c.42.54.87,1.07,1.33,1.58a39.65,39.65,0,0,0,6.08,5.56,32.69,32.69,0,0,0,15,6.32,34.16,34.16,0,0,0,4.11.32,28.4,28.4,0,0,0,4.11-.28,37.22,37.22,0,0,0,8.14-2.09,31.39,31.39,0,0,0,13.46-9.92,33.73,33.73,0,0,0,6.66-15.8,38.6,38.6,0,0,0-1.54-17.5,38.44,38.44,0,0,1,3.13,17.68,34.62,34.62,0,0,1-20,29.5,38.23,38.23,0,0,1-9,3,34.93,34.93,0,0,1-4.79.62,38,38,0,0,1-23-6.45,45.28,45.28,0,0,1-13.59-13.69,48.15,48.15,0,0,1-6.51-18.28,73.43,73.43,0,0,1-.2-19l.24-2.29c.1-.81.23-1.68.38-2.53a49,49,0,0,1,1.19-4.83,90.06,90.06,0,0,1,3.2-8.9c2.38-5.73,5.07-11.19,7.84-16.58,1.39-2.7,2.82-5.37,4.26-8l4.47-7.9c2.93-5.32,6.1-10.41,9.23-15.57,6.29-10.22,12.88-20.2,19.32-30.26,3.19-5,6.33-10,9.34-15.05,1.49-2.52,3-5,4.3-7.52s2.46-5,3.59-7.57a135,135,0,0,0,5.78-16,92.31,92.31,0,0,0,3.29-16.24A43.71,43.71,0,0,0,104,71a21,21,0,0,0-7-11.19,28,28,0,0,0-12.92-5.46,58.17,58.17,0,0,0-15.79-.3,78,78,0,0,0-8,1.37,50.69,50.69,0,0,0-7.67,2.24,59.51,59.51,0,0,0-14,7.41A66.08,66.08,0,0,0,26.91,76,69.65,69.65,0,0,0,12.34,105a70.14,70.14,0,0,0-1.63,16.37,68.12,68.12,0,0,0,2.36,16.58L13.6,140c.19.68.44,1.34.66,2,.48,1.34.85,2.73,1.42,4l1.62,4,1.9,3.87a91.52,91.52,0,0,0,9.48,14.6,109.23,109.23,0,0,0,12.44,12.71,81.71,81.71,0,0,1-14.91-10.34,80.38,80.38,0,0,1-12.31-13.75A75,75,0,0,1,5,140.54,71.86,71.86,0,0,1,.46,122.06,72.78,72.78,0,0,1,6.27,84.13a77.18,77.18,0,0,1,10-16.73,73.85,73.85,0,0,1,14-13.79A67.93,67.93,0,0,1,47.67,44,77.8,77.8,0,0,1,66.8,39.56a72.34,72.34,0,0,1,19.92.49,42.57,42.57,0,0,1,19.6,8.61,23,23,0,0,1,2.09,1.92c.66.68,1.38,1.31,2,2l1.77,2.24c.54.77,1,1.58,1.54,2.36a39.39,39.39,0,0,1,4.21,10.19A57.73,57.73,0,0,1,118.95,87.76Z"/></svg>